<?xml version="1.0" encoding="UTF-8" standalone="no"?>
<svg xmlns="http://www.w3.org/2000/svg" version="1" width="200" height="23">
	<path d="M191 6h-8v11h9l2-1 1-3v-3l-1-3-3-1zm2-6l5 2 2 6v7l-2 6-4 2h-16V0h15zm-32 13h6l-3-7-3 7zm-4 10h-5l9-23h6l9 23h-5l-2-4h-10l-2 4zm-7-17h-13v3h12v5h-12v3h13v6h-18V0h18v6zm-37 17h-5V0h5v8h10V0h5v23h-5v-9h-10v9zm-23 0l-4-1-2-1-2-2V9 4l2-2 2-2h14l3 2 1 2v15l-1 2-3 1-4 1h-6zm2-6h3l3-1 1-3v-3l-1-4H88l-1 4v3l1 3 4 1zm-13 6h-6V0h6v23zM61 6h-8v11h9l2-1 1-3v-3l-1-3-3-1zm2-6l6 2 1 6v7l-1 6-5 2H48V0h15zM31 13h6l-3-7-3 7zm-4 10h-5l9-23h7l9 23h-6l-2-4H29l-2 4zM13 6H5v5h10V8 6h-2zm0-6l6 2 1 6v4l-2 2 2 1v8h-5v-4-2H5v6H0V0h13" fill="#eaeaea" fill-rule="evenodd"/>
</svg>